<svg width="46" height="36" viewBox="0 0 46 36" fill="none" xmlns="http://www.w3.org/2000/svg">
<path d="M40.25 0.75H5.75C2.57456 0.75 0 3.32456 0 6.5V29.5C0 32.6754 2.57456 35.25 5.75 35.25H40.25C43.4254 35.25 46 32.6754 46 29.5V6.5C46 3.32456 43.4254 0.75 40.25 0.75ZM30.7855 16.0936L42.9565 5.66328C43.0408 5.93282 43.125 6.20235 43.125 6.5V29.5C43.125 29.6994 43.0492 29.8763 43.0099 30.0643L30.7855 16.0936ZM40.25 3.625C40.4409 3.625 40.6094 3.69804 40.7891 3.73452L23 18.9827L5.21094 3.73452C5.39062 3.69804 5.55908 3.625 5.75 3.625H40.25ZM2.98874 30.0615C2.94939 29.8734 2.875 29.6994 2.875 29.5V6.5C2.875 6.20235 2.96062 5.93282 3.04489 5.66328L15.2117 16.0908L2.98874 30.0615ZM5.75 32.375C5.45945 32.375 5.19548 32.2907 4.93018 32.2093L17.396 17.9634L22.0651 21.9643C22.3332 22.1974 22.6673 22.3125 23 22.3125C23.3327 22.3125 23.6668 22.1974 23.9349 21.9644L28.604 17.9635L41.0698 32.2094C40.806 32.2907 40.542 32.375 40.25 32.375H5.75Z" fill="black" fill-opacity="0.8"/>
</svg>
