<svg width="39" height="38" viewBox="0 0 39 38" fill="none" xmlns="http://www.w3.org/2000/svg">
<g opacity="0.74">
<path d="M33.2223 2.70238C34.2621 2.70238 35.2593 3.08395 35.9946 3.76315C36.7298 4.44235 37.1429 5.36354 37.1429 6.32407V31.6759C37.1429 32.6365 36.7298 33.5576 35.9946 34.2368C35.2593 34.916 34.2621 35.2976 33.2223 35.2976H5.77781C4.738 35.2976 3.74077 34.916 3.0055 34.2368C2.27024 33.5576 1.85718 32.6365 1.85718 31.6759V6.32407C1.85718 5.36354 2.27024 4.44235 3.0055 3.76315C3.74077 3.08395 4.738 2.70238 5.77781 2.70238H33.2223ZM32.2421 30.7705V21.173C32.2421 19.6073 31.5688 18.1058 30.3703 16.9987C29.1718 15.8916 27.5464 15.2697 25.8515 15.2697C24.1852 15.2697 22.2445 16.2113 21.3035 17.6238V15.6137H15.8342V30.7705H21.3035V21.843C21.3035 20.4487 22.5189 19.3078 24.0284 19.3078C24.7562 19.3078 25.4543 19.5749 25.969 20.0504C26.4837 20.5258 26.7728 21.1707 26.7728 21.843V30.7705H32.2421ZM9.46321 12.7707C10.3367 12.7707 11.1743 12.4502 11.7919 11.8796C12.4096 11.3091 12.7565 10.5353 12.7565 9.72846C12.7565 8.04437 11.2863 6.66813 9.46321 6.66813C8.58456 6.66813 7.74191 6.99056 7.12061 7.56448C6.49931 8.1384 6.15027 8.91681 6.15027 9.72846C6.15027 11.4125 7.64011 12.7707 9.46321 12.7707ZM12.1881 30.7705V15.6137H6.75797V30.7705H12.1881Z" fill="black"/>
</g>
</svg>
